{
  "accessors": [
    {
      "bufferView": 1,
      "componentType": 5126,
      "count": 803,
      "max": [
        1.0699100494384766,
        1.0842499732971191,
        0.6487100124359131
      ],
      "min": [
        -1.1052099466323853,
        -1.1470400094985962,
        -1.0
      ],
      "type": "VEC3"
    },
    {
      "bufferView": 1,
      "byteOffset": 9636,
      "componentType": 5126,
      "count": 803,
      "max": [
        0.9997200965881348,
        0.9756298661231995,
        1.0
      ],
      "min": [
        -0.998013436794281,
        -0.9724591374397278,
        -1.0
      ],
      "type": "VEC3"
    },
    {
      "bufferView": 0,
      "componentType": 5125,
      "count": 999,
      "type": "SCALAR"
    },
    {
      "bufferView": 2,
      "componentType": 5126,
      "count": 282,
      "max": [
        11.75
      ],
      "min": [
        0.041669998317956924
      ],
      "type": "SCALAR"
    },
    {
      "bufferView": 3,
      "componentType": 5126,
      "count": 282,
      "max": [
        0.0,
        0.0,
        1.0,
        1.0
      ],
      "min": [
        0.0,
        0.0,
        -0.9996799826622009,
        -0.002689999993890524
      ],
      "type": "VEC4"
    }
  ],
  "animations": [
    {
      "channels": [
        {
          "sampler": 0,
          "target": {
            "node": 4,
            "path": "rotation"
          }
        }
      ],
      "name": "CubeAction",
      "samplers": [
        {
          "input": 3,
          "interpolation": "LINEAR",
          "output": 4
        }
      ]
    }
  ],
  "asset": {
    "extras": {
      "author": "BlastOffGames (https://sketchfab.com/BlastOffGames)",
      "license": "CC-BY-4.0 (http://creativecommons.org/licenses/by/4.0/)",
      "source": "https://sketchfab.com/3d-models/mountain-12b29bb3ff554a6fbad3d6b6a2519236",
      "title": "Mountain"
    },
    "generator": "Sketchfab-12.68.0",
    "version": "2.0"
  },
  "bufferViews": [
    {
      "buffer": 0,
      "byteLength": 3996,
      "name": "floatBufferViews",
      "target": 34963
    },
    {
      "buffer": 0,
      "byteLength": 19272,
      "byteOffset": 3996,
      "byteStride": 12,
      "name": "floatBufferViews",
      "target": 34962
    },
    {
      "buffer": 0,
      "byteLength": 1128,
      "byteOffset": 23268,
      "name": "floatBufferViews"
    },
    {
      "buffer": 0,
      "byteLength": 4512,
      "byteOffset": 24396,
      "byteStride": 16,
      "name": "floatBufferViews"
    }
  ],
  "buffers": [
    {
      "byteLength": 28908,
      "uri": "scene.bin"
    }
  ],
  "materials": [
    {
      "doubleSided": true,
      "name": "Material",
      "pbrMetallicRoughness": {
        "baseColorFactor": [
          0.6400000190734865,
          0.6400000190734865,
          0.6400000190734865,
          1.0
        ],
        "metallicFactor": 0.0,
        "roughnessFactor": 0.6
      }
    }
  ],
  "meshes": [
    {
      "name": "Cube_0",
      "primitives": [
        {
          "attributes": {
            "NORMAL": 1,
            "POSITION": 0
          },
          "indices": 2,
          "material": 0,
          "mode": 4
        }
      ]
    }
  ],
  "nodes": [
    {
      "children": [
        1
      ],
      "matrix": [
        0.3651126027107239,
        -1.9555884789726782e-32,
        5.871458363460926e-17,
        0.0,
        5.871458363460926e-17,
        1.3978586725666186e-16,
        -0.3651126027107239,
        0.0,
        -2.9233968863449117e-33,
        0.3651126027107239,
        1.3978586725666186e-16,
        0.0,
        -5.551115123125783e-17,
        -8.326672684688674e-17,
        -1.8488927466117464e-32,
        1.0
      ],
      "name": "Sketchfab_model"
    },
    {
      "children": [
        2,
        4
      ],
      "name": "Root"
    },
    {
      "children": [
        3
      ],
      "matrix": [
        -0.29086000000000006,
        0.9551700000000001,
        -0.05519000000000001,
        0.0,
        -0.7711,
        -0.19988000000000003,
        0.6045200000000001,
        0.0,
        0.5663900000000001,
        0.21839000000000003,
        0.7946700000000001,
        0.0,
        4.076250000000001,
        1.00545,
        5.903860000000001,
        1.0
      ],
      "name": "Lamp"
    },
    {
      "name": "Lamp"
    },
    {
      "children": [
        5
      ],
      "name": "Cube",
      "translation": [
        0.355569988489151,
        0.5026999711990356,
        0.0
      ]
    },
    {
      "mesh": 0,
      "name": "Cube_0"
    }
  ],
  "scene": 0,
  "scenes": [
    {
      "name": "Sketchfab_Scene",
      "nodes": [
        0
      ]
    }
  ]
}
