{
  "accessors": [
    {
      "bufferView": 2,
      "componentType": 5126,
      "count": 251,
      "max": [
        300.00006103515625,
        300.00006103515625,
        15.0
      ],
      "min": [
        -300.0000305175781,
        -300.00006103515625,
        0.0
      ],
      "type": "VEC3"
    },
    {
      "bufferView": 2,
      "byteOffset": 3012,
      "componentType": 5126,
      "count": 251,
      "max": [
        0.8535916805267334,
        0.8535933494567871,
        0.9045379161834717
      ],
      "min": [
        -0.8535922169685364,
        -0.8535934686660767,
        -0.9045376777648926
      ],
      "type": "VEC3"
    },
    {
      "bufferView": 3,
      "componentType": 5126,
      "count": 251,
      "max": [
        0.9998655915260315,
        0.9998656511306763,
        0.04373917356133461,
        1.0
      ],
      "min": [
        -0.9998656511306763,
        -0.9999999403953552,
        -0.04373911768198013,
        1.0
      ],
      "type": "VEC4"
    },
    {
      "bufferView": 1,
      "componentType": 5126,
      "count": 251,
      "max": [
        0.9996185302734375,
        0.9135105609893799
      ],
      "min": [
        0.0012698215432465076,
        0.05086810886859894
      ],
      "type": "VEC2"
    },
    {
      "bufferView": 0,
      "componentType": 5125,
      "count": 576,
      "type": "SCALAR"
    },
    {
      "bufferView": 2,
      "byteOffset": 6024,
      "componentType": 5126,
      "count": 72,
      "max": [
        289.50439453125,
        289.0571594238281,
        14.69062614440918
      ],
      "min": [
        -290.3988037109375,
        -290.8460388183594,
        0.3093743324279785
      ],
      "type": "VEC3"
    },
    {
      "bufferView": 2,
      "byteOffset": 6888,
      "componentType": 5126,
      "count": 72,
      "max": [
        1.0,
        1.0,
        0.0
      ],
      "min": [
        -1.0,
        -1.0,
        0.0
      ],
      "type": "VEC3"
    },
    {
      "bufferView": 1,
      "byteOffset": 2008,
      "componentType": 5126,
      "count": 72,
      "max": [
        0.9785841107368469,
        0.572145938873291
      ],
      "min": [
        0.002912474563345313,
        0.46283191442489624
      ],
      "type": "VEC2"
    },
    {
      "bufferView": 0,
      "byteOffset": 2304,
      "componentType": 5125,
      "count": 192,
      "type": "SCALAR"
    },
    {
      "bufferView": 2,
      "byteOffset": 7752,
      "componentType": 5126,
      "count": 433,
      "max": [
        295.0,
        295.0,
        15.0
      ],
      "min": [
        -295.0,
        -295.0,
        0.0
      ],
      "type": "VEC3"
    },
    {
      "bufferView": 2,
      "byteOffset": 12948,
      "componentType": 5126,
      "count": 433,
      "max": [
        1.0,
        1.0,
        1.0
      ],
      "min": [
        -1.0,
        -1.0,
        -1.0
      ],
      "type": "VEC3"
    },
    {
      "bufferView": 3,
      "byteOffset": 4016,
      "componentType": 5126,
      "count": 433,
      "max": [
        1.0,
        0.9996376037597656,
        2.5043635787369567e-07,
        1.0
      ],
      "min": [
        -1.0,
        -0.9998329877853394,
        -1.0,
        -1.0
      ],
      "type": "VEC4"
    },
    {
      "bufferView": 1,
      "byteOffset": 2584,
      "componentType": 5126,
      "count": 433,
      "max": [
        1.0,
        1.0
      ],
      "min": [
        0.0,
        0.0
      ],
      "type": "VEC2"
    },
    {
      "bufferView": 0,
      "byteOffset": 3072,
      "componentType": 5125,
      "count": 1152,
      "type": "SCALAR"
    },
    {
      "bufferView": 4,
      "componentType": 5126,
      "count": 301,
      "max": [
        10.0
      ],
      "min": [
        0.0
      ],
      "type": "SCALAR"
    },
    {
      "bufferView": 5,
      "componentType": 5126,
      "count": 301,
      "max": [
        6.657901252538068e-08,
        6.6578522250893e-08,
        0.9999924898147583,
        0.9999997019767761
      ],
      "min": [
        -3.316081276238947e-08,
        -5.7259612162852136e-08,
        -0.8600248098373413,
        -0.4980669319629669
      ],
      "type": "VEC4"
    }
  ],
  "animations": [
    {
      "channels": [
        {
          "sampler": 0,
          "target": {
            "node": 4,
            "path": "rotation"
          }
        }
      ],
      "name": "Take 001",
      "samplers": [
        {
          "input": 14,
          "interpolation": "LINEAR",
          "output": 15
        }
      ]
    }
  ],
  "asset": {
    "extras": {
      "author": "Anthony Yanez (https://sketchfab.com/paulyanez)",
      "license": "CC-BY-4.0 (http://creativecommons.org/licenses/by/4.0/)",
      "source": "https://sketchfab.com/3d-models/sacred-ring-halo-07474d33a7564b34a557ad1be4536a79",
      "title": "Sacred Ring (Halo)"
    },
    "generator": "Sketchfab-12.66.0",
    "version": "2.0"
  },
  "bufferViews": [
    {
      "buffer": 0,
      "byteLength": 7680,
      "name": "floatBufferViews",
      "target": 34963
    },
    {
      "buffer": 0,
      "byteLength": 6048,
      "byteOffset": 7680,
      "byteStride": 8,
      "name": "floatBufferViews",
      "target": 34962
    },
    {
      "buffer": 0,
      "byteLength": 18144,
      "byteOffset": 13728,
      "byteStride": 12,
      "name": "floatBufferViews",
      "target": 34962
    },
    {
      "buffer": 0,
      "byteLength": 10944,
      "byteOffset": 31872,
      "byteStride": 16,
      "name": "floatBufferViews",
      "target": 34962
    },
    {
      "buffer": 0,
      "byteLength": 1204,
      "byteOffset": 42816,
      "name": "floatBufferViews"
    },
    {
      "buffer": 0,
      "byteLength": 4816,
      "byteOffset": 44020,
      "byteStride": 16,
      "name": "floatBufferViews"
    }
  ],
  "buffers": [
    {
      "byteLength": 48836,
      "uri": "scene.bin"
    }
  ],
  "images": [
    {
      "uri": "textures/02_-_Default_baseColor.jpeg"
    },
    {
      "uri": "textures/02_-_Default_emissive.jpeg"
    },
    {
      "uri": "textures/02_-_Default_normal.png"
    },
    {
      "uri": "textures/01_-_Default_baseColor.png"
    },
    {
      "uri": "textures/03_-_Default_baseColor.jpeg"
    },
    {
      "uri": "textures/03_-_Default_normal.png"
    }
  ],
  "materials": [
    {
      "doubleSided": true,
      "emissiveFactor": [
        1.0,
        1.0,
        1.0
      ],
      "emissiveTexture": {
        "index": 1
      },
      "name": "02_-_Default",
      "normalTexture": {
        "index": 2
      },
      "pbrMetallicRoughness": {
        "baseColorTexture": {
          "index": 0
        },
        "roughnessFactor": 0.7726753049
      }
    },
    {
      "doubleSided": true,
      "name": "01_-_Default",
      "pbrMetallicRoughness": {
        "baseColorTexture": {
          "index": 3
        },
        "roughnessFactor": 0.8929713596
      }
    },
    {
      "doubleSided": true,
      "name": "03_-_Default",
      "normalTexture": {
        "index": 5
      },
      "pbrMetallicRoughness": {
        "baseColorTexture": {
          "index": 4
        },
        "roughnessFactor": 0.8929713596
      }
    }
  ],
  "meshes": [
    {
      "name": "Halo Ring_02 - Default_0",
      "primitives": [
        {
          "attributes": {
            "NORMAL": 1,
            "POSITION": 0,
            "TANGENT": 2,
            "TEXCOORD_0": 3
          },
          "indices": 4,
          "material": 0,
          "mode": 4
        }
      ]
    },
    {
      "name": "Halo Ring_01 - Default_0",
      "primitives": [
        {
          "attributes": {
            "NORMAL": 6,
            "POSITION": 5,
            "TEXCOORD_0": 7
          },
          "indices": 8,
          "material": 1,
          "mode": 4
        }
      ]
    },
    {
      "name": "Halo Ring_03 - Default_0",
      "primitives": [
        {
          "attributes": {
            "NORMAL": 10,
            "POSITION": 9,
            "TANGENT": 11,
            "TEXCOORD_0": 12
          },
          "indices": 13,
          "material": 2,
          "mode": 4
        }
      ]
    }
  ],
  "nodes": [
    {
      "children": [
        1
      ],
      "matrix": [
        1.0,
        0.0,
        0.0,
        0.0,
        0.0,
        -0.48969522118568404,
        -0.8718937039375306,
        0.0,
        0.0,
        0.8718937039375306,
        -0.48969522118568404,
        0.0,
        0.0,
        -3.702615261077881,
        0.8467252254486076,
        1.0
      ],
      "name": "Sketchfab_model"
    },
    {
      "children": [
        2
      ],
      "matrix": [
        1.0,
        0.0,
        0.0,
        0.0,
        0.0,
        0.0,
        1.0,
        0.0,
        0.0,
        -1.0,
        0.0,
        0.0,
        0.0,
        0.0,
        0.0,
        1.0
      ],
      "name": "Halo Ring.FBX"
    },
    {
      "children": [
        3
      ],
      "name": "Object_2"
    },
    {
      "children": [
        4
      ],
      "name": "RootNode"
    },
    {
      "children": [
        5,
        6,
        7
      ],
      "name": "Halo Ring",
      "rotation": [
        8.115036109757057e-08,
        -7.099711041291812e-09,
        -0.08715542405843735,
        0.9961947202682495
      ],
      "scale": [
        3.176874876022339,
        3.176874876022339,
        12.987592697143555
      ],
      "translation": [
        0.22123894095420837,
        -0.22122807800769806,
        -89.90694427490234
      ]
    },
    {
      "mesh": 0,
      "name": "Halo Ring_02 - Default_0"
    },
    {
      "mesh": 1,
      "name": "Halo Ring_01 - Default_0"
    },
    {
      "mesh": 2,
      "name": "Halo Ring_03 - Default_0"
    }
  ],
  "samplers": [
    {
      "magFilter": 9729,
      "minFilter": 9987,
      "wrapS": 10497,
      "wrapT": 10497
    }
  ],
  "scene": 0,
  "scenes": [
    {
      "name": "Sketchfab_Scene",
      "nodes": [
        0
      ]
    }
  ],
  "textures": [
    {
      "sampler": 0,
      "source": 0
    },
    {
      "sampler": 0,
      "source": 1
    },
    {
      "sampler": 0,
      "source": 2
    },
    {
      "sampler": 0,
      "source": 3
    },
    {
      "sampler": 0,
      "source": 4
    },
    {
      "sampler": 0,
      "source": 5
    }
  ]
}
