{
  "accessors": [
    {
      "bufferView": 2,
      "componentType": 5126,
      "count": 6273,
      "max": [
        1.2014564275741577,
        0.39923474192619324,
        1.510138988494873
      ],
      "min": [
        -1.2014565467834473,
        -0.3833529055118561,
        0.00012362003326416016
      ],
      "type": "VEC3"
    },
    {
      "bufferView": 2,
      "byteOffset": 75276,
      "componentType": 5126,
      "count": 6273,
      "max": [
        1.0,
        1.0,
        1.0
      ],
      "min": [
        -1.0,
        -1.0,
        -1.0
      ],
      "type": "VEC3"
    },
    {
      "bufferView": 1,
      "componentType": 5126,
      "count": 6273,
      "max": [
        0.8917616605758667,
        1.0
      ],
      "min": [
        0.125,
        0.0
      ],
      "type": "VEC2"
    },
    {
      "bufferView": 0,
      "componentType": 5125,
      "count": 10254,
      "type": "SCALAR"
    }
  ],
  "asset": {
    "extras": {
      "author": "SusanKing (https://sketchfab.com/krolzuzannapl)",
      "license": "CC-BY-4.0 (http://creativecommons.org/licenses/by/4.0/)",
      "source": "https://sketchfab.com/3d-models/bench-low-poly-a606688f1ef74049b6a23d759721db63",
      "title": "Bench low poly"
    },
    "generator": "Sketchfab-12.66.0",
    "version": "2.0"
  },
  "bufferViews": [
    {
      "buffer": 0,
      "byteLength": 41016,
      "name": "floatBufferViews",
      "target": 34963
    },
    {
      "buffer": 0,
      "byteLength": 50184,
      "byteOffset": 41016,
      "byteStride": 8,
      "name": "floatBufferViews",
      "target": 34962
    },
    {
      "buffer": 0,
      "byteLength": 150552,
      "byteOffset": 91200,
      "byteStride": 12,
      "name": "floatBufferViews",
      "target": 34962
    }
  ],
  "buffers": [
    {
      "byteLength": 241752,
      "uri": "scene.bin"
    }
  ],
  "materials": [
    {
      "doubleSided": true,
      "name": "Material",
      "pbrMetallicRoughness": {
        "baseColorFactor": [
          0.615177,
          0.110475,
          0.0212412,
          1.0
        ],
        "metallicFactor": 0.0,
        "roughnessFactor": 0.9482344519802205
      }
    }
  ],
  "meshes": [
    {
      "name": "bench_Material_0",
      "primitives": [
        {
          "attributes": {
            "NORMAL": 1,
            "POSITION": 0,
            "TEXCOORD_0": 2
          },
          "indices": 3,
          "material": 0,
          "mode": 4
        }
      ]
    }
  ],
  "nodes": [
    {
      "children": [
        1
      ],
      "matrix": [
        1.0,
        0.0,
        0.0,
        0.0,
        0.0,
        2.220446049250313e-16,
        -1.0,
        0.0,
        0.0,
        1.0,
        2.220446049250313e-16,
        0.0,
        0.0,
        0.0,
        0.0,
        1.0
      ],
      "name": "Sketchfab_model"
    },
    {
      "children": [
        2
      ],
      "matrix": [
        1.0,
        0.0,
        0.0,
        0.0,
        0.0,
        0.0,
        1.0,
        0.0,
        0.0,
        -1.0,
        0.0,
        0.0,
        0.0,
        0.0,
        0.0,
        1.0
      ],
      "name": "6f6ce489779e4d299bb815400bb4893b.fbx"
    },
    {
      "children": [
        3
      ],
      "name": "RootNode"
    },
    {
      "children": [
        4
      ],
      "matrix": [
        -78.9260482788026,
        9.665651572007692e-15,
        3.07349379791771e-05,
        0.0,
        3.3644116391021995e-05,
        6.522769250300428e-06,
        86.39669799804007,
        0.0,
        -2.5294795803581077e-12,
        86.39669799804662,
        -6.5227692407084675e-06,
        0.0,
        0.0,
        0.0,
        0.0,
        1.0
      ],
      "name": "bench"
    },
    {
      "mesh": 0,
      "name": "bench_Material_0"
    }
  ],
  "scene": 0,
  "scenes": [
    {
      "name": "Sketchfab_Scene",
      "nodes": [
        0
      ]
    }
  ]
}
