{
  "accessors": [
    {
      "bufferView": 2,
      "componentType": 5126,
      "count": 346,
      "max": [
        1.0,
        0.44999998807907104,
        0.7599999904632568
      ],
      "min": [
        -1.0,
        -0.44996124505996704,
        2.3697882767237388e-08
      ],
      "type": "VEC3"
    },
    {
      "bufferView": 2,
      "byteOffset": 4152,
      "componentType": 5126,
      "count": 346,
      "max": [
        1.0,
        1.0,
        1.0
      ],
      "min": [
        -1.0,
        -1.0,
        -1.0
      ],
      "type": "VEC3"
    },
    {
      "bufferView": 3,
      "componentType": 5126,
      "count": 346,
      "max": [
        0.9924972653388977,
        1.0,
        1.0,
        1.0
      ],
      "min": [
        -0.9822659492492676,
        -1.0,
        -1.0,
        1.0
      ],
      "type": "VEC4"
    },
    {
      "bufferView": 1,
      "componentType": 5126,
      "count": 346,
      "max": [
        0.9726693034172058,
        0.9946858882904053
      ],
      "min": [
        0.005565308500081301,
        0.004455193877220154
      ],
      "type": "VEC2"
    },
    {
      "bufferView": 1,
      "byteOffset": 2768,
      "componentType": 5126,
      "count": 346,
      "max": [
        0.9726693034172058,
        0.9946858882904053
      ],
      "min": [
        0.005565308500081301,
        0.004455193877220154
      ],
      "type": "VEC2"
    },
    {
      "bufferView": 0,
      "componentType": 5125,
      "count": 1224,
      "type": "SCALAR"
    },
    {
      "bufferView": 2,
      "byteOffset": 8304,
      "componentType": 5126,
      "count": 308,
      "max": [
        1.0089324712753296,
        0.2524668872356415,
        0.44999998807907104
      ],
      "min": [
        -1.0089324712753296,
        -0.2524668872356415,
        2.2351741790771484e-08
      ],
      "type": "VEC3"
    },
    {
      "bufferView": 2,
      "byteOffset": 12000,
      "componentType": 5126,
      "count": 308,
      "max": [
        0.9985939264297485,
        0.9985939264297485,
        1.0
      ],
      "min": [
        -0.9985939264297485,
        -0.9985939264297485,
        -1.0
      ],
      "type": "VEC3"
    },
    {
      "bufferView": 3,
      "byteOffset": 5536,
      "componentType": 5126,
      "count": 308,
      "max": [
        0.9912728667259216,
        0.9985939264297485,
        1.0,
        1.0
      ],
      "min": [
        -0.9090472459793091,
        -0.9985949993133545,
        -1.0,
        1.0
      ],
      "type": "VEC4"
    },
    {
      "bufferView": 1,
      "byteOffset": 5536,
      "componentType": 5126,
      "count": 308,
      "max": [
        0.99627685546875,
        0.9933494925498962
      ],
      "min": [
        0.00415802001953125,
        0.00984075479209423
      ],
      "type": "VEC2"
    },
    {
      "bufferView": 1,
      "byteOffset": 8000,
      "componentType": 5126,
      "count": 308,
      "max": [
        0.99627685546875,
        0.9933494925498962
      ],
      "min": [
        0.00415802001953125,
        0.00984075479209423
      ],
      "type": "VEC2"
    },
    {
      "bufferView": 0,
      "byteOffset": 4896,
      "componentType": 5125,
      "count": 1044,
      "type": "SCALAR"
    },
    {
      "bufferView": 2,
      "byteOffset": 15696,
      "componentType": 5126,
      "count": 308,
      "max": [
        1.0055129528045654,
        0.2304353564977646,
        0.44999998807907104
      ],
      "min": [
        -1.0055129528045654,
        -0.2304353564977646,
        2.2351741790771484e-08
      ],
      "type": "VEC3"
    },
    {
      "bufferView": 2,
      "byteOffset": 19392,
      "componentType": 5126,
      "count": 308,
      "max": [
        0.9995296001434326,
        0.9995296001434326,
        1.0
      ],
      "min": [
        -0.9995296001434326,
        -0.9995296001434326,
        -1.0
      ],
      "type": "VEC3"
    },
    {
      "bufferView": 3,
      "byteOffset": 10464,
      "componentType": 5126,
      "count": 308,
      "max": [
        0.9067890644073486,
        0.9995644688606262,
        1.0,
        1.0
      ],
      "min": [
        -0.9919326305389404,
        -0.9995658993721008,
        -1.0,
        1.0
      ],
      "type": "VEC4"
    },
    {
      "bufferView": 1,
      "byteOffset": 10464,
      "componentType": 5126,
      "count": 308,
      "max": [
        0.99627685546875,
        0.9933494925498962
      ],
      "min": [
        0.00415802001953125,
        0.00984075479209423
      ],
      "type": "VEC2"
    },
    {
      "bufferView": 1,
      "byteOffset": 12928,
      "componentType": 5126,
      "count": 308,
      "max": [
        0.99627685546875,
        0.9933494925498962
      ],
      "min": [
        0.00415802001953125,
        0.00984075479209423
      ],
      "type": "VEC2"
    },
    {
      "bufferView": 0,
      "byteOffset": 9072,
      "componentType": 5125,
      "count": 1044,
      "type": "SCALAR"
    }
  ],
  "asset": {
    "extras": {
      "author": "Vyacheslav_SD (https://sketchfab.com/Vyacheslav_SD)",
      "license": "CC-BY-4.0 (http://creativecommons.org/licenses/by/4.0/)",
      "source": "https://sketchfab.com/3d-models/wooden-bench-and-table-lowpoly-db931b7e39a04558a173bb5ccd499a66",
      "title": "Wooden Bench And Table lowpoly"
    },
    "generator": "Sketchfab-12.67.0",
    "version": "2.0"
  },
  "bufferViews": [
    {
      "buffer": 0,
      "byteLength": 13248,
      "name": "floatBufferViews",
      "target": 34963
    },
    {
      "buffer": 0,
      "byteLength": 15392,
      "byteOffset": 13248,
      "byteStride": 8,
      "name": "floatBufferViews",
      "target": 34962
    },
    {
      "buffer": 0,
      "byteLength": 23088,
      "byteOffset": 28640,
      "byteStride": 12,
      "name": "floatBufferViews",
      "target": 34962
    },
    {
      "buffer": 0,
      "byteLength": 15392,
      "byteOffset": 51728,
      "byteStride": 16,
      "name": "floatBufferViews",
      "target": 34962
    }
  ],
  "buffers": [
    {
      "byteLength": 67120,
      "uri": "scene.bin"
    }
  ],
  "images": [
    {
      "uri": "textures/wooden_table_material_baseColor.png"
    },
    {
      "uri": "textures/wooden_table_material_metallicRoughness.png"
    },
    {
      "uri": "textures/wooden_table_material_normal.png"
    },
    {
      "uri": "textures/wooden_bench_material_baseColor.png"
    },
    {
      "uri": "textures/wooden_bench_material_metallicRoughness.png"
    },
    {
      "uri": "textures/wooden_bench_material_normal.png"
    }
  ],
  "materials": [
    {
      "doubleSided": true,
      "name": "wooden_table_material",
      "normalTexture": {
        "index": 2
      },
      "occlusionTexture": {
        "index": 1
      },
      "pbrMetallicRoughness": {
        "baseColorTexture": {
          "index": 0
        },
        "metallicFactor": 0.09599063199345272,
        "metallicRoughnessTexture": {
          "index": 1
        }
      }
    },
    {
      "doubleSided": true,
      "name": "wooden_bench_material",
      "normalTexture": {
        "index": 5
      },
      "occlusionTexture": {
        "index": 4
      },
      "pbrMetallicRoughness": {
        "baseColorTexture": {
          "index": 3
        },
        "metallicFactor": 0.08970989563992263,
        "metallicRoughnessTexture": {
          "index": 4
        }
      }
    }
  ],
  "meshes": [
    {
      "name": "wooden_table_wooden_table_material_0",
      "primitives": [
        {
          "attributes": {
            "NORMAL": 1,
            "POSITION": 0,
            "TANGENT": 2,
            "TEXCOORD_0": 3,
            "TEXCOORD_1": 4
          },
          "indices": 5,
          "material": 0,
          "mode": 4
        }
      ]
    },
    {
      "name": "wooden_bench_wooden_bench_material_0",
      "primitives": [
        {
          "attributes": {
            "NORMAL": 7,
            "POSITION": 6,
            "TANGENT": 8,
            "TEXCOORD_0": 9,
            "TEXCOORD_1": 10
          },
          "indices": 11,
          "material": 1,
          "mode": 4
        }
      ]
    },
    {
      "name": "wooden_bench.001_wooden_bench_material_0",
      "primitives": [
        {
          "attributes": {
            "NORMAL": 13,
            "POSITION": 12,
            "TANGENT": 14,
            "TEXCOORD_0": 15,
            "TEXCOORD_1": 16
          },
          "indices": 17,
          "material": 1,
          "mode": 4
        }
      ]
    }
  ],
  "nodes": [
    {
      "children": [
        1
      ],
      "matrix": [
        1.0,
        0.0,
        0.0,
        0.0,
        0.0,
        2.220446049250313e-16,
        -1.0,
        0.0,
        0.0,
        1.0,
        2.220446049250313e-16,
        0.0,
        0.0,
        2.3840000551445047e-07,
        -3.2806999570311746e-06,
        1.0
      ],
      "name": "Sketchfab_model"
    },
    {
      "children": [
        2
      ],
      "matrix": [
        1.0,
        0.0,
        0.0,
        0.0,
        0.0,
        0.0,
        1.0,
        0.0,
        0.0,
        -1.0,
        0.0,
        0.0,
        0.0,
        0.0,
        0.0,
        1.0
      ],
      "name": "4593784c48f140bd96c515bb0dcef564.fbx"
    },
    {
      "children": [
        3,
        5,
        7
      ],
      "name": "RootNode"
    },
    {
      "children": [
        4
      ],
      "matrix": [
        100.0,
        0.0,
        0.0,
        0.0,
        0.0,
        -1.629206793918314e-05,
        -99.99999999999868,
        0.0,
        0.0,
        99.99999999999868,
        -1.629206793918314e-05,
        0.0,
        0.0,
        0.0,
        0.0,
        1.0
      ],
      "name": "wooden_table"
    },
    {
      "mesh": 0,
      "name": "wooden_table_wooden_table_material_0"
    },
    {
      "children": [
        6
      ],
      "matrix": [
        100.0,
        0.0,
        0.0,
        0.0,
        0.0,
        -1.629206793918314e-05,
        -99.99999999999868,
        0.0,
        0.0,
        99.99999999999868,
        -1.629206793918314e-05,
        0.0,
        2.734650135040283,
        0.0,
        82.1914291381836,
        1.0
      ],
      "name": "wooden_bench"
    },
    {
      "mesh": 1,
      "name": "wooden_bench_wooden_bench_material_0"
    },
    {
      "children": [
        8
      ],
      "matrix": [
        100.0,
        0.0,
        0.0,
        0.0,
        0.0,
        -1.629206793918314e-05,
        -99.99999999999868,
        0.0,
        0.0,
        99.99999999999868,
        -1.629206793918314e-05,
        0.0,
        4.101975440979004,
        0.0,
        -78.69715881347656,
        1.0
      ],
      "name": "wooden_bench.001"
    },
    {
      "mesh": 2,
      "name": "wooden_bench.001_wooden_bench_material_0"
    }
  ],
  "samplers": [
    {
      "magFilter": 9729,
      "minFilter": 9987,
      "wrapS": 10497,
      "wrapT": 10497
    }
  ],
  "scene": 0,
  "scenes": [
    {
      "name": "Sketchfab_Scene",
      "nodes": [
        0
      ]
    }
  ],
  "textures": [
    {
      "sampler": 0,
      "source": 0
    },
    {
      "sampler": 0,
      "source": 1
    },
    {
      "sampler": 0,
      "source": 2
    },
    {
      "sampler": 0,
      "source": 3
    },
    {
      "sampler": 0,
      "source": 4
    },
    {
      "sampler": 0,
      "source": 5
    }
  ]
}
